<svg id="Layer_1" data-name="Layer 1" xmlns="http://www.w3.org/2000/svg" viewBox="0 0 463.62 463.62"><defs><style>.cls-1{fill:#7460ee;}</style></defs><title>logo</title><path class="cls-1" d="M247.16,19c-128,0-231.81,103.79-231.81,231.81S119.14,482.65,247.16,482.65,479,378.86,479,250.84,375.19,19,247.16,19Zm0,434C135.51,453,45,362.49,45,250.84S135.51,48.67,247.16,48.67s202.16,90.51,202.16,202.16S358.82,453,247.16,453Z" transform="translate(-15.35 -19.02)"/><path class="cls-1" d="M369.32,124.08C286,33.29,79.61,66,71.19,251h4.68c-2.81-68,119.35-204.1,253.67-85.22Z" transform="translate(-15.35 -19.02)"/><circle class="cls-1" cx="231.81" cy="231.81" r="55.23"/><path class="cls-1" d="M327.66,176.42l-94,20.84,63.78,76.34,33.45-93C333.09,175.48,327.66,176.42,327.66,176.42Z" transform="translate(-15.35 -19.02)"/><rect class="cls-1" x="176.58" y="333.84" width="110.45" height="28.71"/></svg>